<svg width="20" height="21" viewBox="0 0 20 21" fill="none" xmlns="http://www.w3.org/2000/svg">
<path d="M20 10.44C20 4.64331 15.6075 0.102539 10 0.102539C4.3925 0.102539 0 4.64331 0 10.44C0 16.2367 4.3925 20.7775 10 20.7775C11.4116 20.7775 12.7783 20.4835 14.062 19.9039L13.4365 18.4237C12.3512 18.9138 11.1951 19.1622 10 19.1622C5.26871 19.1622 1.5625 15.331 1.5625 10.44C1.5625 5.54901 5.26871 1.71777 10 1.71777C14.7313 1.71777 18.4375 5.54901 18.4375 10.44C18.4375 12.2804 17.8817 14.0618 16.875 15.5451V13.6229H15.3125V18.4686H20V16.8534H17.8837C19.2439 15.0292 20 12.7746 20 10.44Z" fill="black"/>
<path d="M10 4.78662C6.98453 4.78662 4.53125 7.32269 4.53125 10.4399C4.53125 13.5572 6.98453 16.0932 10 16.0932C13.0155 16.0932 15.4688 13.5572 15.4688 10.4399C15.4688 7.32269 13.0155 4.78662 10 4.78662ZM10 14.478C7.84605 14.478 6.09375 12.6665 6.09375 10.4399C6.09375 8.21333 7.84605 6.40185 10 6.40185C12.1539 6.40185 13.9062 8.21333 13.9062 10.4399C13.9062 12.6665 12.1539 14.478 10 14.478Z" fill="black"/>
<path d="M10.7812 8.01709H9.21875V11.2475H12.3438V9.63231H10.7812V8.01709Z" fill="black"/>
</svg>
