<svg width="33" height="33" viewBox="0 0 33 33" fill="none" xmlns="http://www.w3.org/2000/svg">
<g clip-path="url(#clip0_14_171)">
<path d="M32.954 17.6204C32.8357 16.7661 31.9552 16.0828 30.3059 15.5834C28.9719 15.1825 27.2832 14.9394 25.4433 14.9V7.88861C25.4433 7.74405 25.3973 7.60605 25.3053 7.49435C25.0884 6.7321 24.2079 6.11442 22.6834 5.65444C21.2049 5.20761 19.273 4.96448 17.2425 4.96448C15.2186 4.96448 13.3065 5.20761 11.8608 5.65444C10.6714 6.02242 9.24552 6.70582 9.24552 7.88204C9.24552 7.95432 9.25209 8.0266 9.26523 8.09889L9.33752 11.0953C5.07288 10.2739 0.952808 13.0798 0.137993 17.351C0.0459976 17.8307 0 18.3235 0 18.8163C0 23.1532 3.52867 26.6819 7.86559 26.6819C9.67264 26.6819 11.4205 26.0577 12.8268 24.9209C14.0621 25.21 15.5078 25.3677 17.0388 25.3808C17.374 27.201 21.3166 28.0356 24.9964 28.0356C27.0203 28.0356 28.9259 27.7859 30.3847 27.3325C31.5806 26.9645 33 26.2745 33 25.0983V17.8767C33 17.7912 32.9869 17.6992 32.954 17.6204ZM12.2551 6.90952C13.5824 6.50211 15.3566 6.27212 17.2491 6.27212C19.1284 6.27212 20.9683 6.50211 22.3088 6.90952C23.7348 7.34321 24.0436 7.79004 24.0436 7.88204C24.0436 7.97403 23.7348 8.42744 22.3023 8.85456C20.9683 9.2554 19.1284 9.49196 17.2491 9.49196C15.4355 9.49196 13.7139 9.28168 12.4062 8.90056C10.9934 8.49315 10.5992 8.03975 10.5663 7.89518C10.5663 7.88204 10.5663 7.87547 10.5597 7.87547C10.5663 7.78347 10.8686 7.33664 12.2551 6.90952ZM24.129 9.52481V11.207C24.0699 11.299 24.037 11.4107 24.0436 11.5224C24.0436 11.6078 23.7348 12.0613 22.3023 12.4949C20.9683 12.8958 19.1219 13.1323 17.2425 13.1323C15.6195 13.1323 14.0293 12.9615 12.7676 12.6395C12.7479 12.6329 12.7348 12.6329 12.7151 12.6264C12.0908 12.1335 11.4008 11.7458 10.6583 11.4633L10.6123 9.61024C11.0657 9.84022 11.5388 10.0242 12.0317 10.1556C13.4576 10.5696 15.3041 10.793 17.2425 10.793C19.273 10.793 21.2049 10.5499 22.6768 10.1031C23.1828 9.96507 23.6691 9.76794 24.129 9.52481ZM12.2748 23.6592C9.60036 26.0971 5.454 25.9 3.0227 23.2255C0.591398 20.5511 0.781959 16.4047 3.45639 13.9734C4.66547 12.8761 6.23596 12.265 7.86559 12.265C8.5227 12.265 9.17981 12.3635 9.81063 12.5541C12.0842 13.2703 13.7993 15.1562 14.2921 17.489C14.3775 17.9227 14.4235 18.3695 14.4235 18.8098C14.4235 20.6628 13.6416 22.4239 12.2748 23.6592ZM13.9438 23.8038C14.4761 23.1532 14.9032 22.4239 15.2055 21.6419C15.764 21.6879 16.3554 21.7207 16.96 21.7273V21.8456L16.9928 24.0732C15.9743 24.0601 14.9558 23.9681 13.9438 23.8038ZM15.6918 18.0344C16.0795 18.0607 16.4803 18.0738 16.8877 18.0804C16.8877 18.0935 16.8943 18.1132 16.8943 18.1264L16.9337 20.4065C16.4671 20.4 16.0137 20.3802 15.5735 20.3474C15.672 19.8414 15.7246 19.3223 15.7246 18.8098C15.7312 18.5535 15.718 18.2972 15.6918 18.0344ZM17.3082 16.7727C17.2885 16.7727 17.2688 16.7727 17.2491 16.7727C16.6183 16.7727 16.0072 16.7464 15.4421 16.707C15.1924 15.8265 14.7981 14.9985 14.2658 14.2626C15.2515 14.3874 16.2437 14.4531 17.2425 14.4531C19.273 14.4531 21.2049 14.21 22.6834 13.7632C23.1894 13.6055 23.6691 13.4149 24.129 13.1718V14.9131C21.3035 14.992 18.3859 15.5834 17.3082 16.7727ZM18.1888 17.7847C18.2545 17.6007 18.7342 17.1736 20.0812 16.7924C21.3626 16.431 23.0317 16.2339 24.7861 16.2339H24.8716C26.7509 16.2339 28.5908 16.4507 29.9313 16.8581C31.3178 17.2787 31.6464 17.6992 31.6661 17.811V17.8175C31.6595 17.9161 31.3309 18.3695 29.8722 18.8032C28.5251 19.204 26.7509 19.4209 24.8716 19.4209C23.0974 19.4209 21.402 19.2172 20.101 18.8558C18.8459 18.5009 18.3399 18.1001 18.2151 17.8964C18.2085 17.8569 18.2019 17.8175 18.1888 17.7847ZM31.6858 25.0983C31.6858 25.1903 31.3901 25.6437 29.997 26.0774C28.6631 26.4914 26.8889 26.7213 24.9964 26.7213C23.0974 26.7213 21.3232 26.4979 20.009 26.0971C18.6159 25.67 18.3333 25.2297 18.3333 25.1311C18.3333 25.1246 18.3333 25.1246 18.3333 25.118L18.3005 23.219C19.8644 24.0141 22.4731 24.3755 24.865 24.3755C26.8955 24.3755 28.8142 24.1323 30.2861 23.6855C30.7724 23.5409 31.2389 23.3438 31.6858 23.1072V25.0983ZM31.6266 21.4579C31.6266 21.5499 31.3244 21.9967 29.905 22.4304C28.5579 22.8378 26.7706 23.0613 24.865 23.0613C21.2575 23.0613 18.813 22.253 18.2742 21.6156L18.2611 21.0505L18.2348 19.5457C18.7145 19.7888 19.2139 19.9794 19.733 20.1174C21.1458 20.5117 22.966 20.7351 24.8584 20.7351C26.856 20.7351 28.7616 20.4985 30.227 20.0648C30.733 19.9203 31.2192 19.7297 31.6792 19.4866V21.1753H31.6858C31.6858 21.2608 31.6266 21.3593 31.6266 21.4579Z" fill="black"/>
<path d="M11.1446 22.3252C11.0132 21.9835 10.6386 21.8192 10.2969 21.9441C10.2969 21.9375 10.2969 21.9375 10.2969 21.9375C9.05499 22.4106 7.65535 22.1084 6.72225 21.1687C6.53169 20.9979 6.37398 20.7942 6.2557 20.5707H9.63324C9.99465 20.5707 10.2904 20.275 10.2904 19.9136C10.2904 19.5522 9.99465 19.2565 9.63324 19.2565H5.77602C5.73659 19.02 5.73002 18.7768 5.7563 18.5337H9.97494C10.3363 18.5337 10.632 18.238 10.632 17.8766C10.632 17.5152 10.3363 17.2195 9.97494 17.2195H6.144C6.3017 16.9369 6.49226 16.6807 6.71568 16.4441C7.65535 15.511 9.05499 15.2087 10.2904 15.6884C10.632 15.8198 11.0066 15.649 11.138 15.3139C11.2694 14.9722 11.0986 14.5976 10.7635 14.4662C9.04184 13.8025 7.09023 14.2165 5.78259 15.5241C5.29633 16.0038 4.92835 16.5821 4.69836 17.2261H3.76526C3.40385 17.2261 3.10815 17.5218 3.10815 17.8832C3.10815 18.2446 3.40385 18.5403 3.76526 18.5403H4.42237C4.40923 18.7834 4.40923 19.02 4.43551 19.2631H3.76526C3.40385 19.2631 3.10815 19.5588 3.10815 19.9202C3.10815 20.2816 3.40385 20.5773 3.76526 20.5773H4.77064C4.99406 21.149 5.34232 21.6747 5.78259 22.1084C7.08366 23.416 9.03527 23.8366 10.7635 23.1729C11.1052 23.0415 11.2694 22.6669 11.1446 22.3252Z" fill="black"/>
</g>
<defs>
<clipPath id="clip0_14_171">
<rect width="33" height="33" fill="white"/>
</clipPath>
</defs>
</svg>
